<svg xmlns="http://www.w3.org/2000/svg" xmlns:xlink="http://www.w3.org/1999/xlink" width="350" height="300" viewBox="0 0 535.305 418.854"><defs><linearGradient id="a" y1="0.5" x2="1" y2="0.5" gradientUnits="objectBoundingBox"><stop offset="0" stop-color="gray" stop-opacity="0.251"/><stop offset="0.54" stop-color="gray" stop-opacity="0.122"/><stop offset="1" stop-color="gray" stop-opacity="0.102"/></linearGradient></defs><g transform="translate(0.004 -0.003)"><ellipse cx="93.376" cy="17.689" rx="93.376" ry="17.689" transform="translate(94.397 375.367)" fill="#9c3c94" opacity="0.1"/><path d="M406.243,114.1c-34.317-1.188-67-12.27-98.212-24.391s-62.123-25.547-95.619-31.968c-21.544-4.131-46.184-4.719-63.539,6.819-16.708,11.135-22.106,30.3-25.006,48.1-2.185,13.394-3.468,27.493,2.513,40.033,4.157,8.707,11.528,16.024,16.628,24.365,17.747,29.015,5.2,64.8-14.025,93.127-9.014,13.288-19.486,25.982-26.449,40.113s-10.181,30.378-4.088,44.832c6.034,14.317,20.42,25.049,36,32.6,31.65,15.351,68.932,19.741,105.312,22.233,80.507,5.5,161.438,3.123,242.157.732,29.874-.88,59.875-1.776,89.261-6.395,16.321-2.566,33.167-6.639,45.018-16.469,15.038-12.477,18.765-33.6,8.685-49.244-16.9-26.247-63.629-32.764-75.459-60.925-6.5-15.5.175-32.769,9.629-47.144,20.276-30.844,54.26-57.9,56.047-93.153,1.23-24.211-15.107-48.459-40.368-59.918-26.475-12.01-63.194-10.5-82.718,9.38C471.892,107.282,436.546,115.156,406.243,114.1Z" transform="translate(-95.23 -55.03)" fill="#9c3c94" opacity="0.1"/><path d="M483.664,291.991l-16.241-10.95h0l8.192-12.2-42.9-3.42L417.3,277.346l-19.3-10.817-16.093,1.935-.191-4.242a119.735,119.735,0,0,0-1.331-13.2c.069-1.326.117-2.847.111-4.5,0-6.973-.944-16.215-5.09-22.376l.954-8.579-7.742-9.147a58.516,58.516,0,0,1,4.242-7.137c.265-.382.53-.753.817-1.113a19.253,19.253,0,0,0,17.975-19.089,12.226,12.226,0,0,0-.053-1.395,5.057,5.057,0,0,0-.058-.562c.981.53,1.973,1.061,2.964,1.591.186.265.4.53.631.843h0l.048.058.3.366.1.111c.106.127.217.249.329.376l.074.085c.281.313.578.631.9.944a.951.951,0,0,1,.106.1l.4.371.111.1c.339.3.7.594,1.06.87l.117.085.456.313.148.1c.175.106.355.217.53.318l.064.037c.207.111.419.217.631.318l.106.042q.27.117.53.223l.164.058c.186.064.366.122.557.175l.117.032c.233.058.467.106.705.143h.026a5.765,5.765,0,0,0,.679.069h.154a5.832,5.832,0,0,0,.61,0h.133a6.284,6.284,0,0,0,.758-.09,8.367,8.367,0,0,0,3.341-1.2,2.916,2.916,0,0,0,.679-.631,2.5,2.5,0,0,0-.106-2.911h0c-.414-.986-3.1-1.681-3.1-1.681s-8.484-3.542-8.484-6.363-2.121-17.456-24.015-20.8c0,0-14.242-.8-18.246,6.824l-.085.891c-1.177.737-2.153,2.216-3.314,2.651a5.414,5.414,0,0,0-1.437.53v-.1h0a1.367,1.367,0,0,0-.323.419,4.242,4.242,0,0,0-.44,1.591,5.992,5.992,0,0,1-.695,1.925,4.285,4.285,0,0,1-.318.488h0l-.09.143a3.871,3.871,0,0,0,1.8-.292,8.979,8.979,0,0,1-.53,2.121,1.76,1.76,0,0,0,1.633-.976v-.042l.069-.1a4.471,4.471,0,0,0,.329-.769l-.058.064c.106-.345.2-.695.318-1.034a1.623,1.623,0,0,1,.26-.53,1.283,1.283,0,0,1,1.1-.366l-.217,4.6h.1a6.275,6.275,0,0,1-.467.965c-.753,1.22-2.121,2.052-2.625,3.388a4.985,4.985,0,0,0-.244,2c0,.4.048.8.08,1.2v-.032a4.472,4.472,0,0,1-.477,2.922c-.392.583-1.023,1.023-1.241,1.686a1.644,1.644,0,0,0-.08.573,6.431,6.431,0,0,0,.361,1.7.074.074,0,0,0,0-.032,2.588,2.588,0,0,1,.09,1.251c-.239,1.06-1.527,1.946-1.464,2.959a1.139,1.139,0,0,0,.058.392,2.148,2.148,0,0,0,1.2,1.06,4.666,4.666,0,0,0,2.694.594,3.543,3.543,0,0,0,1.007-.345c-.371.854-.753,1.7-1.14,2.5-.058.127-.122.255-.186.382,0,0-3.277-2.19-5.138,2.275a9.906,9.906,0,0,0-1.151,2.991,7.112,7.112,0,0,1-.392,1.23,7.916,7.916,0,0,1-3.542,3.181c-3.8,1.739-19.131,20.865-19.4,25.818a28.893,28.893,0,0,1-.976,5.716,34.015,34.015,0,0,0-.912,13.516,25.856,25.856,0,0,0,.939,4.311c1.628,4.947,2.715,14.179,2.715,14.179l1.76,16.024a45.6,45.6,0,0,0,.286,6.623c-1.8,2.052-9.014,10.6-6.257,12.933,2.121,1.835,5.833,1.532,7.917,1.156-1.755,4.343-4.518,11.893-4.884,17.079-.53,7.673.907,17.837,3.181,21.74s9.857,13.914,9.857,13.914-.355,13.733,2.354,18.723,3.8,15.34,3.8,15.34,2.529,8.738,1.262,11.952,2.349,5.886-1.448,8.023-8.654,50.3-8.654,50.3-1.957,31.565,0,33.172a1.99,1.99,0,0,0,.334.2v10.6s-1.357,2.227,4.162,2.678c3.781.3,14.5.986,20.855,1.384l4.926.308s11.665,2.322,16.819,0,14.29-2.269,12.933-8.4a17.445,17.445,0,0,0-.721-2.455c-1.49-3.807-4.019-4.242-8.68-5.3-.27-.058-.53-.111-.769-.154-4.91-.854-6.522,1.432-9.274-1.543-2.391-2.572-10.006-5.451-12.6-6.363.064-.191.143-.376.207-.573a3.882,3.882,0,0,1-1.967-.96l7.026.445,4.184.26s9.916,1.978,14.317,0,12.143-1.925,10.987-7.137a14.952,14.952,0,0,0-.61-2.089c-1.267-3.235-3.42-3.59-7.381-4.486-.228-.048-.44-.1-.652-.133-4.173-.726-5.541,1.214-7.879-1.31-2-2.153-8.33-4.565-10.6-5.387,0-1.177-1.591-2.853-2.593-4.534-1.177-1.962,1-8.829,1-8.829l1.241-28.49a5.5,5.5,0,0,1,1.485-.424s5.61-5.355,4.343-11.061a36.66,36.66,0,0,1-.4-5.212c1.845-1.713,4.385-4.242,5.106-5.8,1.177-2.54,0-14.847,0-14.847V335.89l9.385.949,8.516.875,2.593.265,8.516.859,19.571,1.978,17.636-3.341,7.63-1.442,15.69-2.969v-38.39ZM354.491,164.78l-1.092-.117C353.759,164.679,354.141,164.748,354.491,164.78Z" transform="translate(-199.921 -100.179)" fill="url(#a)"/><path d="M522.126,446.761c-5.3,7.588-24.365,3.569-24.365,3.569l-14.773-13.823L481,434.634l3.335-7.084s1.06.292,2.879.811C496.764,431.134,526.6,440.382,522.126,446.761Z" transform="translate(-276.45 -230.022)" fill="#efb7b9"/><path d="M487.2,428.361a31.106,31.106,0,0,1-4.215,8.145L481,434.634l3.335-7.084S485.406,427.842,487.2,428.361Z" transform="translate(-276.45 -230.022)" opacity="0.1"/><path d="M385.657,278.223s-13.617,6.039-12.949,20.87a244.525,244.525,0,0,0,3.118,28.506s-2.784,22.318,8.807,28.071,22.318,10.483,22.318,10.483,18.134,1.951,20.388,2.757,9.3-11.517,8-13.436-17.943-5.944-20.064-9.147-7.026-5.18-7.026-5.18-5.064-3.065-5.409-5.833.992-4.831,1.331-6.045,1.2-12.938,1.2-12.938S411.083,274.6,385.657,278.223Z" transform="translate(-225.568 -159.77)" fill="#dce6f2"/><path d="M399.043,370.39s-18.681,3.128-16.872,9.666A39.6,39.6,0,0,1,399.043,370.39Z" transform="translate(-229.966 -203.171)" opacity="0.1"/><path d="M406.82,375.38s-10.271,8.383-8.261,8.813S406.82,375.38,406.82,375.38Z" transform="translate(-237.6 -205.515)" opacity="0.1"/><path d="M422.253,380.89s-2.752,5.636-1.06,5.255S422.253,380.89,422.253,380.89Z" transform="translate(-248.097 -208.103)" opacity="0.1"/><path d="M437.618,359.234l-1.135-.323a3.242,3.242,0,0,0,.148-2.317c-1.3-1.919-17.933-5.939-20.049-9.147s-7.026-5.18-7.026-5.18-5.064-3.065-5.409-5.833.992-4.831,1.331-6.045,1.2-12.943,1.2-12.943,5.7-41.725-19.725-38.1c0,0-13.617,6.045-12.954,20.876a243.839,243.839,0,0,0,3.123,28.506s-2.784,22.318,8.807,28.071,22.318,10.483,22.318,10.483,18.129,1.946,20.388,2.757c.854.308,2.4-1.278,3.908-3.457l.859.8L448.175,381.2s19.062,4.025,24.365-3.563C477.02,371.25,447.189,362,437.618,359.234Z" transform="translate(-226.174 -160.296)" opacity="0.1"/><path d="M379.542,170.738a4.507,4.507,0,0,0-1.469.567c-.53.44-.53,1.193-.663,1.851a6.087,6.087,0,0,1-1.061,2.535,3.813,3.813,0,0,0,1.766-.292,9.087,9.087,0,0,1-.53,2.121,1.718,1.718,0,0,0,1.591-.97,10.215,10.215,0,0,0,.663-1.861,1.532,1.532,0,0,1,.254-.53c.488-.578,1.395-.318,2.147-.244a3.526,3.526,0,0,0,3.224-1.548c.8-1.214.848-4.321-1.06-4.65C382.411,167.387,381.17,170.134,379.542,170.738Z" transform="translate(-227.29 -107.95)" fill="#965d7b"/><g transform="translate(149.14 63.217)" opacity="0.1"><path d="M378.758,175.04c.048-.26.08-.53.138-.79h0a3.111,3.111,0,0,0-.663,1.851,5.831,5.831,0,0,1-.313,1.119A6.075,6.075,0,0,0,378.758,175.04Z" transform="translate(-377.167 -174.25)"/><path d="M378.26,182.121a8.819,8.819,0,0,0,.53-2.121,3.8,3.8,0,0,1-1.681.292,6.138,6.138,0,0,1-.61,1.06,3.775,3.775,0,0,0,1.76-.286,8.818,8.818,0,0,1-.53,2.121,1.723,1.723,0,0,0,1.591-.97,3.957,3.957,0,0,0,.318-.758A1.591,1.591,0,0,1,378.26,182.121Z" transform="translate(-376.5 -176.951)"/><path d="M386.355,176.049c-.753-.074-1.665-.334-2.153.244a1.638,1.638,0,0,0-.255.53c-.048.138-.09.281-.127.424.5-.4,1.32-.186,2-.117a3.542,3.542,0,0,0,3.224-1.548,2.937,2.937,0,0,0,.355-.833A3.531,3.531,0,0,1,386.355,176.049Z" transform="translate(-379.939 -174.485)"/></g><path d="M314.811,201l8.086,9.725-1.055,9.815-9.772-15.3Z" transform="translate(-146.599 -94.419)" fill="#dce6f2"/><path d="M322.892,210.725l-.992,9.232-.064.583-8.818-13.808-.949-1.49.276-.429,2.46-3.812.546.658Z" transform="translate(-146.599 -94.419)" opacity="0.1"/><path d="M405.955,218.54c-2.736.785-5.35,3.478-7.625,6.75a57.614,57.614,0,0,0-4.115,7.073c-.748,1.5-1.405,2.932-1.951,4.184l-.382.891c-.923,2.179-1.437,3.637-1.437,3.637s-20.945-15.748-17.631-16.809c1.113-.355,2.577-2.741,4.025-5.748l.18-.382c.917-1.93,1.819-4.083,2.619-6.108,1.638-4.162,2.853-7.779,2.853-7.779S414.307,216.154,405.955,218.54Z" transform="translate(-225.462 -125.125)" fill="#efb7b9"/><path d="M459.26,202.58s4.836,8.749,11.331,7.556,3.823-4.7,3.823-4.7Z" transform="translate(-266.237 -124.341)" fill="#444053"/><path d="M407.082,755.438c-4.284,1.957-13.972,0-13.972,0l-4.083-.254c-5.3-.339-14.179-.912-17.318-1.167-4.581-.376-3.457-2.254-3.457-2.254V740.421l22.228-5.631s8.786,3.007,11.193,5.631c2.285,2.5,3.622.578,7.7,1.3.2.037.414.08.636.133,3.871.885,5.971,1.235,7.211,4.443a14.9,14.9,0,0,1,.6,2.068C418.965,753.529,411.361,753.492,407.082,755.438Z" transform="translate(-223.428 -374.349)" fill="#a36468"/><path d="M417.22,752.436a16.618,16.618,0,0,1-2.5,1.283c-2.916,1.331-5.69,2.953-8.638,4.21a20.2,20.2,0,0,1-9.316,1.914c-1.67-.122-3.378-.53-4.974-.053a11.486,11.486,0,0,0-2.763,1.532c-5.3-.339-14.179-.912-17.318-1.167-4.581-.376-3.457-2.254-3.457-2.254v-1.326c.164,0,.35-.048.562-.064a10.01,10.01,0,0,1,3.235.482c2.3.626,4.592,1.241,6.893,1.856a5.446,5.446,0,0,1,2.651-3.383,8.452,8.452,0,0,1,4.274-.981c3.569.048,6.946,1.739,10.509,1.909a5.791,5.791,0,0,0,2.911-.488c.488-.244.917-.6,1.395-.87a10.177,10.177,0,0,1,2.4-.811,52.92,52.92,0,0,0,6.867-2.216c.636-.249,1.379-.7,1.294-1.379-.111-.9-1.527-1.008-1.9-1.835a1.061,1.061,0,0,1,.042-.939c.2.037.414.08.636.133C413.88,748.878,415.979,749.228,417.22,752.436Z" transform="translate(-223.428 -380.489)" opacity="0.1"/><path d="M392.453,799c-5.037,2.3-16.438,0-16.438,0l-4.8-.281c-6.214-.4-16.681-1.06-20.377-1.373-5.393-.445-4.067-2.651-4.067-2.651V781.328l26.157-6.628s10.34,3.537,13.171,6.628c2.688,2.943,4.242.679,9.062,1.527.239.042.488.1.748.154,4.555,1.06,7.026,1.458,8.484,5.234a17.015,17.015,0,0,1,.705,2.434C406.414,796.753,397.49,796.705,392.453,799Z" transform="translate(-213.328 -393.097)" fill="#a36468"/><path d="M404.383,795.491A19.733,19.733,0,0,1,401.441,797c-3.431,1.564-6.7,3.473-10.165,4.953a23.828,23.828,0,0,1-10.965,2.254c-1.962-.143-3.972-.636-5.833-.064a13.522,13.522,0,0,0-3.261,1.824c-6.214-.4-16.681-1.06-20.377-1.373-5.393-.445-4.067-2.651-4.067-2.651v-1.559a6.655,6.655,0,0,1,.663-.074,11.634,11.634,0,0,1,3.807.567l8.107,2.185a6.416,6.416,0,0,1,3.144-3.982,9.894,9.894,0,0,1,5.032-1.156c4.2.058,8.171,2.047,12.365,2.248a6.846,6.846,0,0,0,3.415-.567c.578-.292,1.06-.711,1.644-1.023a11.538,11.538,0,0,1,2.826-.954,63.482,63.482,0,0,0,8.038-2.609c.748-.3,1.623-.827,1.522-1.622-.133-1.06-1.8-1.188-2.238-2.163a1.278,1.278,0,0,1,.053-1.1c.239.042.488.1.748.154C400.454,791.3,402.925,791.715,404.383,795.491Z" transform="translate(-213.328 -400.346)" opacity="0.1"/><path d="M396.156,647.54l-1.416,33.315s-2.121,6.8-.97,8.749,3.091,3.887,2.386,5.037-9.189,13.59-11.931,8.818-5.446-25.452-5.446-25.452l2.529-25.542Z" transform="translate(-228.431 -333.363)" fill="#444053"/><path d="M416.084,491l3.934,5.26v45.75s1.151,12.2,0,14.714-6.983,7.556-6.983,7.556l-4.9-25.187,1.061-26.645Z" transform="translate(-242.218 -259.828)" fill="#444053"/><path d="M396.156,647.54l-1.416,33.315s-2.121,6.8-.97,8.749,3.091,3.887,2.386,5.037-9.189,13.59-11.931,8.818-5.446-25.452-5.446-25.452l2.529-25.542Z" transform="translate(-228.431 -333.363)" opacity="0.1"/><path d="M416.084,491l3.934,5.26v45.75s1.151,12.2,0,14.714-6.983,7.556-6.983,7.556l-4.9-25.187,1.061-26.645Z" transform="translate(-242.218 -259.828)" opacity="0.1"/><path d="M381.907,442.926v24.746l-4.417,19.264s-1.416,46.487-.18,52.139-4.242,10.96-4.242,10.96-3.181.355-3.181,2.826-5.3,9.544-5.3,9.544l.175,13.786s2.3,25.807-1.236,30.754,1.236,5.658,1.236,5.658c-4.417,14.492-25.627,11.135-27.541,9.544s0-32.875,0-32.875,4.74-47.722,8.452-49.843.18-4.772,1.416-7.954-1.235-11.84-1.235-11.84-1.06-10.255-3.712-15.2-2.3-18.559-2.3-18.559-7.423-9.9-9.629-13.786-3.627-13.961-3.1-21.565c.361-5.138,3.06-12.62,4.772-16.925.822-2.063,1.416-3.4,1.416-3.4l.5.133,28.962,7.582Z" transform="translate(-204.107 -231.267)" fill="#444053"/><path d="M412.311,218.507c-2.736.785-5.35,3.478-7.625,6.75h-.594a18.94,18.94,0,0,1-16.438-9.507,18.652,18.652,0,0,1-1.665-3.791c1.638-4.162,2.853-7.779,2.853-7.779S420.663,216.121,412.311,218.507Z" transform="translate(-231.818 -125.092)" opacity="0.1"/><path d="M422.292,189.394a18.956,18.956,0,1,1-35.463-9.29,18.522,18.522,0,0,1,2-2.9,19.184,19.184,0,0,1,4.359-3.828A18.956,18.956,0,0,1,422.266,188C422.276,188.471,422.292,188.932,422.292,189.394Z" transform="translate(-231.062 -109.235)" fill="#efb7b9"/><path d="M400.764,262.965l-.064.583-8.818-13.786c-.923,2.179-1.437,3.637-1.437,3.637S369.5,237.63,372.815,236.57c1.113-.355,2.577-2.741,4.025-5.748l.18-.382c1.538,4.581,10.472,13.739,14.189,17.408.43.424.785.774,1.061,1.029l.567.53.3.3C394.486,251.1,400.192,257.249,400.764,262.965Z" transform="translate(-225.462 -137.428)" opacity="0.1"/><path d="M382.941,309.607l-.965,31.056-.17,5.53s-11.432-1.06-22.1-2.227c-8.59-.939-16.687-1.951-17.933-2.545a33.754,33.754,0,0,0-7.689-1.691c-2.079-.281-3.712-.43-3.712-.43s-.61.18-1.548.35c-2.047.371-5.642.673-7.736-1.145-2.678-2.328,4.359-10.785,6.114-12.816l.387-.44-.663-6.124L325.2,303.244s-1.06-9.147-2.651-14.051a25.92,25.92,0,0,1-.917-4.268,34.19,34.19,0,0,1,.891-13.394,29.208,29.208,0,0,0,.954-5.668c.265-4.9,15.245-23.861,18.956-25.584a7.869,7.869,0,0,0,3.8-3.786,7.231,7.231,0,0,0,.578-1.649c1.591-6.893,5.615-4.157,5.615-4.157.97,5.393,15.992,19.667,15.992,19.667l.3.3c1.49,1.527,8.129,8.7,7.657,14.815a17.96,17.96,0,0,0,1,6.7A113.337,113.337,0,0,1,382.6,301.86Z" transform="translate(-201.048 -137.292)" fill="#dce6f2"/><path d="M391.961,310.45s-3.712,9.014-6.5,10.472S393.287,324,391.961,310.45Z" transform="translate(-231.352 -175.013)" opacity="0.1"/><path d="M395.864,342.2s-8.484,1.06-8.484,2.651S395.864,342.2,395.864,342.2Z" transform="translate(-232.471 -189.928)" opacity="0.1"/><path d="M405.788,361.7s-12.328,26.247-15.775,27.042S405.788,361.7,405.788,361.7Z" transform="translate(-233.514 -199.088)" opacity="0.1"/><path d="M390.5,252.6l-10.2,4.433L368,238.441a7.234,7.234,0,0,0,.578-1.649c1.591-6.893,5.615-4.157,5.615-4.157.97,5.393,15.992,19.667,15.992,19.667Z" transform="translate(-223.367 -138.208)" opacity="0.1"/><path d="M391.5,250.6l-10.2,4.433L369,236.441a7.232,7.232,0,0,0,.578-1.649c1.591-6.893,5.615-4.157,5.615-4.157.97,5.393,15.992,19.667,15.992,19.667Z" transform="translate(-223.837 -137.268)" fill="#dce6f2"/><path d="M386.687,375.17s-11.432-1.061-22.1-2.227l19.142,5.011v5.833c-.838.758-1.564,1.151-2.036.949-2.206-.928-20.208-3.844-20.208-3.844s-10.456-5.3-21.74-11.665a8.717,8.717,0,0,1-.8-.5,12.535,12.535,0,0,1-3.341-3.346,23.746,23.746,0,0,1-3.542-10.7,46.244,46.244,0,0,1-.276-6.564,53.825,53.825,0,0,1,.679-7.418,243.943,243.943,0,0,1-1.591-28.633c.133-14.847,14.052-20.149,14.052-20.149,25.584-2.254,17.652,39.106,17.652,39.106s-1.479,11.665-1.882,12.858-1.851,3.181-1.654,5.965,5.085,6.114,5.085,6.114,4.772,2.238,6.739,5.552c1.432,2.444,10.732,5.758,15.987,8.123Z" transform="translate(-205.929 -166.268)" opacity="0.1"/><path d="M420.356,175.436a6,6,0,0,1-.53,2.535,15.67,15.67,0,0,1-.944,1.888,8.7,8.7,0,0,1-2.322,2.885,11.88,11.88,0,0,1-4.242,1.474,6.139,6.139,0,0,0-3.834,2.174,7.6,7.6,0,0,0-.9,2.6,5.588,5.588,0,0,1-1.06,2.513,2.084,2.084,0,0,1-2.482.594,2.508,2.508,0,0,1-.96-1.235,17.719,17.719,0,0,1-1-4.343,9.239,9.239,0,0,0-1.49-4.162,3.727,3.727,0,0,0-3.913-1.5,3.77,3.77,0,0,0-2.121,2.057,11.792,11.792,0,0,0-.8,2.927q-.986,5.4-2.328,10.732a.987.987,0,0,1-.175.4.764.764,0,0,1-.53.223c-1.188.159-2.328-.673-3.526-.583a2.027,2.027,0,0,0-.366.058,18.946,18.946,0,0,1,1.914-21.634l.1-.026a5.716,5.716,0,0,0,2.121-1.336,22.381,22.381,0,0,0,2.121-2.455l.424-.53a24.183,24.183,0,0,1,4.136-3.929,4.241,4.241,0,0,1,1.41-.764,4.178,4.178,0,0,1,1.336-.042,33.707,33.707,0,0,0,5.52.207,35.415,35.415,0,0,1,3.876-.392c3.356.1,6.22,2.466,8.341,5.064A7.844,7.844,0,0,1,420.356,175.436Z" transform="translate(-231.028 -107.049)" opacity="0.1"/><path d="M379.483,177.966c-.737,1.209-2.068,2.031-2.566,3.356-.732,1.925.5,4.321-.631,6.039-.376.578-1,1.007-1.209,1.67-.361,1.119.626,2.312.371,3.462s-1.771,2.121-1.368,3.245a2.121,2.121,0,0,0,1.167,1.06,4.56,4.56,0,0,0,2.651.589c1.448-.239,2.524-1.66,3.993-1.766,1.193-.085,2.333.742,3.521.589a.8.8,0,0,0,.53-.228.917.917,0,0,0,.175-.4q1.336-5.329,2.333-10.732a11.557,11.557,0,0,1,.8-2.927,3.8,3.8,0,0,1,2.121-2.057,3.74,3.74,0,0,1,3.913,1.5,9.183,9.183,0,0,1,1.5,4.162,17.954,17.954,0,0,0,1,4.343,2.534,2.534,0,0,0,.965,1.241,2.077,2.077,0,0,0,2.476-.594,5.53,5.53,0,0,0,1.06-2.519,7.574,7.574,0,0,1,.9-2.593A6.152,6.152,0,0,1,407,183.231a12,12,0,0,0,4.242-1.479,8.727,8.727,0,0,0,2.323-2.879,8.477,8.477,0,0,0,1.453-4.428,8.128,8.128,0,0,0-2.174-4.587c-2.121-2.6-4.99-4.968-8.346-5.059a32.978,32.978,0,0,0-3.876.392,33.18,33.18,0,0,1-5.52-.212,4.338,4.338,0,0,0-1.336.048,4,4,0,0,0-1.405.764,24.194,24.194,0,0,0-4.141,3.924,30.393,30.393,0,0,1-2.556,2.969,5.753,5.753,0,0,1-2.121,1.342c-.53.148-1.061.042-1.564.207C380.416,174.726,380.21,176.768,379.483,177.966Z" transform="translate(-226.191 -106.594)" fill="#965d7b"/><path d="M470.591,210.131c-4.242.779-7.757-2.651-9.7-5.154a20.8,20.8,0,0,1-1.628-2.4l14.561,2.747.589.111S477.087,208.943,470.591,210.131Z" transform="translate(-266.237 -124.341)" opacity="0.1"/><g transform="translate(147.795 67.327)" opacity="0.1"><path d="M376.32,212.366a4.417,4.417,0,0,0-.308-2.036c0,.053-.048.106-.064.159a3.946,3.946,0,0,0,.276,2.185A1.6,1.6,0,0,0,376.32,212.366Z" transform="translate(-374.858 -195.308)"/><path d="M379.071,197.8a11.776,11.776,0,0,0,.042,2.2,11.815,11.815,0,0,0-.042-2.2Z" transform="translate(-376.348 -189.422)"/><path d="M413.513,185.42a8.7,8.7,0,0,1-2.322,2.885,11.846,11.846,0,0,1-4.242,1.474,6.124,6.124,0,0,0-3.834,2.174,7.642,7.642,0,0,0-.9,2.6,5.551,5.551,0,0,1-1.06,2.519,2.07,2.07,0,0,1-2.476.594,2.534,2.534,0,0,1-.965-1.241,17.653,17.653,0,0,1-1-4.343,9.162,9.162,0,0,0-1.5-4.162,3.727,3.727,0,0,0-3.913-1.5,3.786,3.786,0,0,0-2.121,2.057,11.557,11.557,0,0,0-.8,2.927q-.992,5.4-2.333,10.732a.918.918,0,0,1-.175.4.8.8,0,0,1-.53.228c-1.188.154-2.328-.673-3.521-.589-1.469.106-2.545,1.527-3.993,1.76a4.481,4.481,0,0,1-2.651-.589,2.837,2.837,0,0,1-.97-.689,1.431,1.431,0,0,0-.2,1.235,2.068,2.068,0,0,0,1.167,1.06,4.481,4.481,0,0,0,2.651.589c1.448-.233,2.524-1.654,3.993-1.76,1.193-.085,2.333.742,3.521.589a.8.8,0,0,0,.53-.228.917.917,0,0,0,.175-.4q1.336-5.3,2.333-10.732a11.557,11.557,0,0,1,.8-2.927,3.786,3.786,0,0,1,2.121-2.057,3.731,3.731,0,0,1,3.913,1.5,9.184,9.184,0,0,1,1.5,4.162,17.956,17.956,0,0,0,1,4.343,2.535,2.535,0,0,0,.965,1.241,2.077,2.077,0,0,0,2.476-.594,5.551,5.551,0,0,0,1.06-2.519,7.64,7.64,0,0,1,.9-2.6,6.177,6.177,0,0,1,3.834-2.174,12.094,12.094,0,0,0,4.242-1.474,8.7,8.7,0,0,0,2.322-2.885,8.443,8.443,0,0,0,1.453-4.422,5.7,5.7,0,0,0-.064-.6,10.421,10.421,0,0,1-1.389,3.42Z" transform="translate(-373.964 -182)"/></g><path d="M422.036,180.145a18.734,18.734,0,0,1,2.36,7.874c-4.724-2.651-9.168-5.562-11.411-6.575-3.908-1.766-18.521-1.5-24.015-1.336a18.521,18.521,0,0,1,2-2.9,19.184,19.184,0,0,1,4.375-3.828,18.967,18.967,0,0,1,26.714,6.75Z" transform="translate(-233.218 -109.239)" opacity="0.1"/><path d="M471.917,207.882c-2.55.785-6.713-.732-11.029-2.906a20.8,20.8,0,0,1-1.628-2.4l14.561,2.747C474.786,205.984,475.029,206.923,471.917,207.882Z" transform="translate(-266.237 -124.341)" opacity="0.1"/><path d="M404.776,154.059s-13.919-.8-17.832,6.761l-.631,6.7-1.06-.117-.212,4.555s21.273-.928,26.115,1.257,19.884,13.192,25.913,11.337-.53-3.579-.53-3.579-8.3-3.516-8.3-6.273S426.182,157.373,404.776,154.059Z" transform="translate(-231.372 -101.536)" fill="#444053"/><path d="M371.63,622.28s8.882,8.617,12.726,7.954C384.356,630.234,373.486,629.306,371.63,622.28Z" transform="translate(-225.072 -321.497)" opacity="0.1"/><path d="M368.13,629.81s.8,4.433,2.916,4S368.13,629.81,368.13,629.81Z" transform="translate(-223.428 -325.035)" opacity="0.1"/><path d="M384.879,769.53S372.27,779.34,374.4,779.6,384.879,769.53,384.879,769.53Z" transform="translate(-226.258 -390.669)" opacity="0.1"/><path d="M330.96,341.444l40.829-6.644v38.655L333,371.424Z" transform="translate(-155.472 -157.273)" fill="#9c3c94"/><path d="M330.96,341.444l40.829-6.644v38.655L333,371.424Z" transform="translate(-155.472 -157.273)" opacity="0.05"/><path d="M407.96,334.8l48.963,3.664-2.71,33.639-46.253,1.352Z" transform="translate(-191.643 -157.273)" fill="#9c3c94"/><path d="M407.96,334.8l48.963,3.664-2.71,33.639-46.253,1.352Z" transform="translate(-191.643 -157.273)" opacity="0.1"/><path d="M423.014,312.55l-15.054,11.8,48.963,3.664,8-12.074Z" transform="translate(-191.643 -146.821)" fill="#9c3c94"/><path d="M303.08,319.065l36.757-4.475,18.855,10.716-40.829,6.644Z" transform="translate(-142.375 -147.779)" fill="#9c3c94"/><path d="M380.739,350.724v52.849l-19.126-1.962-8.32-.848-2.535-.265-8.314-.854-11.485-1.177V347.33l40.824,2.779Z" transform="translate(-155.472 -163.159)" fill="#9c3c94"/><path d="M464.852,341.71v51.54l-15.329,2.943-7.455,1.432-17.228,3.309V348.084Z" transform="translate(-199.573 -160.519)" fill="#9c3c94"/><path d="M464.852,341.71v51.54l-15.329,2.943-7.455,1.432-17.228,3.309V348.084Z" transform="translate(-199.573 -160.519)" opacity="0.05"/><path d="M303.08,358.454l14.783-11.125,49.779,3.394-7.328,12.344Z" transform="translate(-142.375 -163.159)" fill="#9c3c94"/><path d="M303.08,358.454l14.783-11.125,49.779,3.394-7.328,12.344Z" transform="translate(-142.375 -163.159)" fill="#fff" opacity="0.1"/><path d="M464.852,341.71l-40.012,6.374,13.023,11.665,42.86-7.19Z" transform="translate(-199.573 -160.519)" fill="#9c3c94"/><path d="M464.852,341.71l-40.012,6.374,13.023,11.665,42.86-7.19Z" transform="translate(-199.573 -160.519)" fill="#fff" opacity="0.1"/><path d="M464.785,434.412l-7.455,1.432V424.83l6.983-1.76Z" transform="translate(-214.835 -198.738)" fill="#fff" opacity="0.1"/><path d="M381.4,435.96v7.286l-8.32-.848V435.96Z" transform="translate(-175.258 -204.793)" fill="#fff" opacity="0.1"/><path d="M360.934,440.29v3.876l-8.314-.854V440.29Z" transform="translate(-165.647 -206.827)" fill="#fff" opacity="0.1"/><path d="M474.83,464.91c-5.7,7.291-24.524,2.254-24.524,2.254l-13.988-14.592-1.9-1.978,3.712-6.893s1.06.35,2.832.965C450.338,447.942,479.629,458.775,474.83,464.91Z" transform="translate(-254.568 -237.608)" opacity="0.1"/><path d="M473.83,462.91c-5.7,7.291-24.524,2.254-24.524,2.254l-13.988-14.592-1.9-1.978,3.712-6.893s1.06.35,2.832.965C449.338,445.942,478.629,456.775,473.83,462.91Z" transform="translate(-254.099 -236.669)" fill="#efb7b9"/><path d="M439.923,442.665a31.347,31.347,0,0,1-4.645,7.906l-1.9-1.978,3.712-6.893S438.158,442.05,439.923,442.665Z" transform="translate(-254.08 -236.669)" opacity="0.1"/><path d="M345.93,287.919s-13.919,5.3-14.051,20.149A243.951,243.951,0,0,0,333.47,336.7s-3.977,22.138,7.291,28.5,21.74,11.665,21.74,11.665,18,2.916,20.213,3.844,9.894-11,8.7-12.991-17.583-6.893-19.529-10.207-6.739-5.546-6.739-5.546-4.889-3.335-5.085-6.119,1.246-4.772,1.654-5.965,1.888-12.858,1.888-12.858S371.515,285.639,345.93,287.919Z" transform="translate(-206.398 -164.387)" fill="#dce6f2"/><path d="M354.924,380.7s-18.824,2.121-17.365,8.749A39.6,39.6,0,0,1,354.924,380.7Z" transform="translate(-209.029 -208.014)" opacity="0.1"/><path d="M362.439,385.7s-10.684,7.821-8.723,8.351S362.439,385.7,362.439,385.7Z" transform="translate(-216.545 -210.363)" opacity="0.1"/><path d="M377.738,391.7s-3.049,5.483-1.326,5.2S377.738,391.7,377.738,391.7Z" transform="translate(-227.071 -213.181)" opacity="0.1"/><path d="M733.065,167.4s-20.149-1.214-17.8,12.922a3.448,3.448,0,0,0,1.792,3.632s.037-1.06,2.068-.695a9.285,9.285,0,0,0,2.19.106A4.544,4.544,0,0,0,724,182.254h0s5.668-2.338,7.874-11.607c0,0,1.633-2.026,1.591-2.545l-3.4,1.458a6.1,6.1,0,0,1,.244,4.5s-.106-4.406-.764-4.306c-.133,0-1.766.854-1.766.854s2,4.274.488,7.386c0,0,.573-5.271-1.113-7.079l-2.4,1.4s2.338,4.417.753,8.023c0,0,.408-5.53-1.257-7.683l-2.174,1.691s2.2,4.359.859,7.349c0,0-.175-6.437-1.331-6.925a13.115,13.115,0,0,0-2.185,2.365s1.5,3.181.567,4.831c0,0-.573-4.29-1.06-4.311,0,0-1.893,2.842-2.089,4.772a10.319,10.319,0,0,1,1.628-5.059,5.679,5.679,0,0,0-2.9,1.5s.292-2.01,3.362-2.185a14.5,14.5,0,0,1,1.983-2.291,12.434,12.434,0,0,0-4.9.567s1.628-1.893,5.467-1.06l2.121-1.75s-4.019-.53-5.727.058c0,0,1.962-1.676,6.3-.456l2.333-1.395a20.947,20.947,0,0,0-5.467-.472s2.153-1.161,6.151.1l1.67-.748s-2.513-.493-3.245-.573-.774-.281-.774-.281a8.675,8.675,0,0,1,4.714.53S733.14,167.62,733.065,167.4Z" transform="translate(-386.41 -107.801)" fill="#9c3c94"/><path d="M848.525,300.737s-20.149-1.214-17.8,12.922a3.448,3.448,0,0,0,1.792,3.632s.037-1.061,2.073-.695a9.283,9.283,0,0,0,2.19.106,4.539,4.539,0,0,0,2.651-1.1h0s5.674-2.344,7.879-11.612c0,0,1.628-2.02,1.564-2.54l-3.4,1.453a6.118,6.118,0,0,1,.249,4.5s-.111-4.406-.764-4.306c-.133,0-1.771.854-1.771.854s2,4.279.493,7.386c0,0,.573-5.271-1.119-7.079l-2.37,1.384s2.338,4.417.753,8.023c0,0,.408-5.53-1.257-7.683l-2.169,1.7s2.2,4.353.859,7.344c0,0-.175-6.437-1.331-6.925a13.3,13.3,0,0,0-2.19,2.365s1.506,3.181.573,4.831c0,0-.573-4.29-1.06-4.311,0,0-1.893,2.842-2.089,4.772a10.352,10.352,0,0,1,1.633-5.059,5.706,5.706,0,0,0-2.9,1.5s.3-2.01,3.367-2.185a13.241,13.241,0,0,1,1.983-2.291,12.433,12.433,0,0,0-4.9.567s1.628-1.893,5.462-1.034l2.121-1.75s-4.025-.53-5.727.058c0,0,1.962-1.676,6.3-.456l2.333-1.395a21.247,21.247,0,0,0-5.472-.472s2.158-1.161,6.156.1l1.67-.748s-2.513-.493-3.25-.573-.774-.281-.774-.281a8.691,8.691,0,0,1,4.719.53S848.589,300.96,848.525,300.737Z" transform="translate(-440.647 -170.438)" fill="#9c3c94" opacity="0.1"/><path d="M621.426,259.434s4.64-19.667-9.7-19.736a3.444,3.444,0,0,0-3.881,1.145s1.023.217.329,2.158a9.438,9.438,0,0,0-.477,2.121,4.556,4.556,0,0,0,.631,2.826h0s1.342,5.992,10.075,9.746c0,0,1.718,1.951,2.238,1.973l-.848-3.6a6.092,6.092,0,0,1-4.475-.53s4.364.642,4.369,0c0-.133-.53-1.888-.53-1.888s-4.555,1.241-7.365-.779c0,0,5.1,1.463,7.169.111l-.954-2.609s-4.772,1.554-8.038-.626c0,0,5.382,1.347,7.789.074l-1.3-2.429s-4.666,1.421-7.386-.408c0,0,6.363.923,7.052-.127a13.174,13.174,0,0,0-1.957-2.561s-3.372.944-4.857-.26c0,0,4.322.164,4.422-.292,0,0-2.476-2.349-4.364-2.879a10.393,10.393,0,0,1,4.714,2.471,5.722,5.722,0,0,0-.986-3.113s1.93.636,1.591,3.712a13.207,13.207,0,0,1,1.914,2.344,12.469,12.469,0,0,0,.276-4.931s1.591,1.93.09,5.562l1.357,2.413s1.23-3.871.917-5.652c0,0,1.32,2.216-.626,6.289l.981,2.54a21.236,21.236,0,0,0,1.395-5.3s.779,2.322-1.145,6.05l.456,1.771s.912-2.391,1.114-3.1.408-.716.408-.716a8.685,8.685,0,0,1-1.32,4.56S621.2,259.46,621.426,259.434Z" transform="translate(-335.955 -141.686)" fill="#9c3c94" opacity="0.1"/><path d="M530.081,285.217s-16.183-12.105-21.968,1.007a3.451,3.451,0,0,0-.5,4.019s.6-.854,2.121.562a9.282,9.282,0,0,0,1.771,1.294,4.549,4.549,0,0,0,2.847.53h0s6.024,1.161,12.959-5.366c0,0,2.476-.8,2.71-1.262l-3.653-.642a6.126,6.126,0,0,1-2.264,3.892s2.328-3.744,1.723-4.014c-.122-.058-1.946-.265-1.946-.265s-.679,4.677-3.648,6.442c0,0,3.378-4.088,2.959-6.527l-2.773-.148s-.472,4.979-3.781,7.121c0,0,3.378-4.4,3.182-7.111l-2.747.223s-.557,4.841-3.319,6.6c0,0,3.388-5.472,2.694-6.511a13.33,13.33,0,0,0-3.128.769s-.483,3.468-2.179,4.348c0,0,1.882-3.9,1.5-4.168,0,0-3.144,1.331-4.38,2.847a10.357,10.357,0,0,1,4.147-3.33,5.711,5.711,0,0,0-3.245-.339s1.347-1.517,4.009.026a13.388,13.388,0,0,1,2.916-.822,12.409,12.409,0,0,0-4.412-2.222s2.407-.689,5.138,2.121l2.752-.281s-3.06-2.651-4.815-3.1c0,0,2.561-.323,5.515,3.081l2.715.122a21.165,21.165,0,0,0-4.306-3.4s2.434.212,5.085,3.462l1.808.292s-1.829-1.792-2.4-2.259-.493-.663-.493-.663a8.711,8.711,0,0,1,3.653,3.033S530.012,285.435,530.081,285.217Z" transform="translate(-288.737 -160.767)" fill="#9c3c94" opacity="0.1"/><path d="M631.691,73.105s-16.183-12.111-21.968,1.007a3.451,3.451,0,0,0-.5,4.019s.6-.854,2.121.562a9.437,9.437,0,0,0,1.776,1.288,4.544,4.544,0,0,0,2.847.53h0s6.024,1.161,12.959-5.371c0,0,2.476-.79,2.7-1.262l-3.653-.631a6.1,6.1,0,0,1-2.264,3.892s2.333-3.744,1.729-4.014c-.122-.058-1.946-.265-1.946-.265s-.7,4.687-3.669,6.442c0,0,3.372-4.088,2.959-6.527l-2.773-.148s-.477,4.979-3.781,7.116c0,0,3.378-4.4,3.181-7.111l-2.741.223s-.562,4.846-3.325,6.607c0,0,3.394-5.472,2.7-6.511a13.329,13.329,0,0,0-3.128.769s-.482,3.468-2.179,4.348c0,0,1.882-3.9,1.5-4.173,0,0-3.144,1.336-4.38,2.853a10.308,10.308,0,0,1,4.147-3.33,5.674,5.674,0,0,0-3.25-.339s1.352-1.516,4.014.027a13.1,13.1,0,0,1,2.916-.822,12.478,12.478,0,0,0-4.412-2.227s2.4-.684,5.133,2.121l2.752-.281s-3.054-2.651-4.815-3.1c0,0,2.561-.318,5.52,3.086L624.58,72a20.948,20.948,0,0,0-4.311-3.4s2.439.212,5.09,3.463l1.8.292s-1.835-1.771-2.407-2.227-.493-.658-.493-.658a8.7,8.7,0,0,1,3.653,3.033S631.6,73.307,631.691,73.105Z" transform="translate(-336.469 -61.126)" fill="#9c3c94" opacity="0.1"/><path d="M749.7,94.7s-6.469-19.147-18.67-11.623a3.485,3.485,0,0,0-2.688,3.028s.981-.361,1.416,1.654a9.547,9.547,0,0,0,.727,2.073,4.591,4.591,0,0,0,2.036,2.063h0s4.306,4.375,13.723,2.927c0,0,2.487.753,2.943.493l-2.651-2.6a6.1,6.1,0,0,1-4.072,1.919s4.046-1.76,3.712-2.328c-.069-.111-1.453-1.315-1.453-1.315s-3.213,3.463-6.66,3.234c0,0,5.1-1.453,6.135-3.712L742,88.82s-3.213,3.828-7.153,3.712c0,0,5.3-1.7,6.644-4.056L739.1,87.1s-3.181,3.675-6.479,3.558c0,0,5.9-2.582,5.912-3.834a13.256,13.256,0,0,0-3.012-1.14s-2.365,2.582-4.242,2.349c0,0,3.754-2.147,3.6-2.588,0,0-3.341-.684-5.223-.133a10.334,10.334,0,0,1,5.3-.4,5.721,5.721,0,0,0-2.487-2.121s1.973-.483,3.293,2.3a13.353,13.353,0,0,1,2.863.976,12.461,12.461,0,0,0-2.37-4.332s2.37.8,3.017,4.677l2.429,1.326s-1-3.929-2.211-5.3c0,0,2.3,1.188,2.794,5.668l2.174,1.638a21.081,21.081,0,0,0-1.622-5.249s1.888,1.559,2.227,5.743l1.32,1.262s-.488-2.513-.689-3.224-.037-.758-.037-.758a8.744,8.744,0,0,1,1.289,4.571S749.513,94.839,749.7,94.7Z" transform="translate(-392.639 -67.381)" fill="#9c3c94" opacity="0.1"/><path d="M672.58,108.217s-20.1-2.238-18.437,12.021a3.442,3.442,0,0,0,1.591,3.712s.09-1.06,2.121-.583a9.755,9.755,0,0,0,2.185.217,4.56,4.56,0,0,0,2.731-.97h0s5.785-2.052,8.484-11.2c0,0,1.729-1.935,1.691-2.46l-3.473,1.283a5.914,5.914,0,0,1,0,4.5s.111-4.406-.53-4.337c-.133,0-1.808.764-1.808.764s1.782,4.375.117,7.423c0,0,.838-5.239-.758-7.126l-2.466,1.273s2.121,4.534.345,8.054c0,0,.689-5.5-.864-7.736l-2.254,1.591s1.973,4.459.483,7.381c0,0,.154-6.437-.976-6.983a13.8,13.8,0,0,0-2.307,2.248s1.342,3.234.329,4.852c0,0-.355-4.311-.822-4.353,0,0-2.036,2.741-2.333,4.677a10.324,10.324,0,0,1,1.888-4.974,5.705,5.705,0,0,0-2.969,1.352s.392-1.988,3.468-2.01c0,0,1.67-2.073,2.121-2.185a12.466,12.466,0,0,0-4.931.318s1.723-1.813,5.509-.758l2.232-1.638s-4.035-.817-5.743-.286c0,0,2.047-1.591,6.32-.133l2.4-1.278a21.112,21.112,0,0,0-5.44-.748s2.211-1.061,6.14.408l1.707-.663s-2.487-.62-3.219-.737-.758-.318-.758-.318a8.723,8.723,0,0,1,4.687.764S672.617,108.44,672.58,108.217Z" transform="translate(-357.739 -79.953)" fill="#9c3c94" opacity="0.1"/><path d="M1004.19,402.387s-20.086-2.238-18.426,12a3.442,3.442,0,0,0,1.591,3.712s.09-1.061,2.121-.589a9.173,9.173,0,0,0,2.185.217,4.523,4.523,0,0,0,2.731-.97h0s5.785-2.052,8.458-11.193c0,0,1.729-1.941,1.692-2.46l-3.473,1.278a5.929,5.929,0,0,1,0,4.507s.111-4.412-.53-4.337c-.133,0-1.808.758-1.808.758s1.782,4.375.117,7.423c0,0,.838-5.234-.758-7.126l-2.466,1.278s2.121,4.534.35,8.054c0,0,.684-5.5-.87-7.742l-2.254,1.591s1.972,4.459.482,7.376c0,0,.154-6.437-.976-6.978a14,14,0,0,0-2.307,2.248s1.347,3.234.329,4.852c0,0-.355-4.311-.822-4.353,0,0-2.036,2.741-2.333,4.677a10.323,10.323,0,0,1,1.888-4.974,5.658,5.658,0,0,0-2.969,1.352s.392-1.994,3.468-2.015c0,0,1.676-2.073,2.121-2.179a12.423,12.423,0,0,0-4.931.313s1.723-1.808,5.515-.753l2.227-1.638s-3.987-.753-5.721-.233c0,0,2.047-1.591,6.32-.138l2.4-1.273a21.112,21.112,0,0,0-5.44-.748s2.211-1.06,6.14.408l1.707-.668s-2.487-.62-3.219-.732-.758-.318-.758-.318a8.691,8.691,0,0,1,4.688.758S1004.243,402.615,1004.19,402.387Z" transform="translate(-513.519 -218.141)" fill="#9c3c94" opacity="0.1"/><path d="M1062.1,437.767s-20.086-2.232-18.426,12a3.451,3.451,0,0,0,1.591,3.712s.09-1.06,2.121-.583a9.361,9.361,0,0,0,2.179.212,4.581,4.581,0,0,0,2.72-.965h0s5.78-2.052,8.452-11.2c0,0,1.734-1.935,1.691-2.46l-3.473,1.278a5.929,5.929,0,0,1,0,4.507s.111-4.406-.53-4.337c-.133,0-1.808.758-1.808.758s1.781,4.375.117,7.423c0,0,.838-5.234-.758-7.121l-2.466,1.273s2.121,4.534.35,8.054c0,0,.684-5.5-.87-7.736l-2.254,1.591s1.973,4.459.488,7.381c0,0,.148-6.442-.981-6.983a14.006,14.006,0,0,0-2.307,2.248s1.347,3.235.329,4.852c0,0-.355-4.311-.822-4.353,0,0-2.036,2.741-2.328,4.677a10.351,10.351,0,0,1,1.882-4.974,5.7,5.7,0,0,0-2.969,1.352s.4-1.994,3.473-2.01c0,0,1.67-2.073,2.121-2.185a12.467,12.467,0,0,0-4.931.318s1.724-1.813,5.515-.758l2.227-1.638s-3.988-.753-5.721-.233c0,0,2.047-1.591,6.32-.133l2.4-1.278a21.114,21.114,0,0,0-5.44-.748s2.211-1.06,6.14.408l1.707-.663s-2.487-.62-3.213-.737-.764-.318-.764-.318a8.722,8.722,0,0,1,4.687.764S1062.153,438,1062.1,437.767Z" transform="translate(-540.723 -234.762)" fill="#9c3c94" opacity="0.1"/><path d="M929.631,135.357s-16.183-12.105-21.968,1.007a3.451,3.451,0,0,0-.5,4.019s.6-.854,2.121.562a9.283,9.283,0,0,0,1.771,1.294,4.555,4.555,0,0,0,2.847.53h0s6.024,1.161,12.964-5.366c0,0,2.471-.8,2.7-1.262l-3.643-.658a6.126,6.126,0,0,1-2.264,3.892s2.328-3.744,1.723-4.014c-.122-.058-1.941-.265-1.941-.265s-.684,4.677-3.653,6.442c0,0,3.378-4.088,2.959-6.527l-2.773-.148s-.472,4.979-3.781,7.121c0,0,3.383-4.4,3.182-7.111l-2.747.223s-.53,4.841-3.319,6.6c0,0,3.394-5.472,2.694-6.511a13.327,13.327,0,0,0-3.128.769s-.477,3.468-2.174,4.348c0,0,1.877-3.9,1.5-4.168,0,0-3.144,1.331-4.38,2.847a10.356,10.356,0,0,1,4.147-3.33,5.711,5.711,0,0,0-3.245-.339s1.352-1.516,4.014.027a13.333,13.333,0,0,1,2.911-.822,12.409,12.409,0,0,0-4.412-2.222s2.407-.689,5.138,2.121l2.752-.281s-3.054-2.651-4.815-3.1c0,0,2.561-.323,5.515,3.081l2.72.122a21.261,21.261,0,0,0-4.311-3.4s2.439.212,5.085,3.462l1.808.292s-1.829-1.792-2.4-2.259-.488-.62-.488-.62a8.717,8.717,0,0,1,3.648,3.033S929.562,135.575,929.631,135.357Z" transform="translate(-476.428 -90.37)" fill="#9c3c94" opacity="0.1"/><path d="M954.96,292.322s-5.578-19.423-18.124-12.45a3.445,3.445,0,0,0-2.826,2.9s1-.313,1.341,1.718a9.4,9.4,0,0,0,.636,2.121,4.555,4.555,0,0,0,1.941,2.163h0s4.1,4.56,13.574,3.542c0,0,2.45.859,2.916.626l-2.508-2.725a6.1,6.1,0,0,1-4.152,1.739s4.115-1.591,3.8-2.158c-.064-.117-1.389-1.384-1.389-1.384s-3.362,3.319-6.8,2.932c0,0,5.159-1.22,6.294-3.415l-2.121-1.792s-3.383,3.68-7.312,3.394c0,0,5.345-1.469,6.819-3.754l-2.322-1.479s-3.367,3.526-6.633,3.261c0,0,6.008-2.317,6.082-3.563a13.235,13.235,0,0,0-2.964-1.273s-2.476,2.471-4.359,2.153c0,0,3.85-1.978,3.712-2.423,0,0-3.309-.832-5.212-.371a10.346,10.346,0,0,1,5.3-.154,5.689,5.689,0,0,0-2.386-2.227s1.994-.4,3.181,2.439a13.23,13.23,0,0,1,2.816,1.1,12.4,12.4,0,0,0-2.174-4.433s2.333.9,2.8,4.8l2.365,1.437s-.827-3.977-1.972-5.377c0,0,2.238,1.288,2.54,5.785l2.121,1.734a21.03,21.03,0,0,0-1.384-5.3s1.819,1.644,1.967,5.833l1.262,1.326s-.371-2.535-.53-3.256,0-.822,0-.822a8.69,8.69,0,0,1,1.087,4.624S954.769,292.449,954.96,292.322Z" transform="translate(-489.254 -159.939)" fill="#9c3c94" opacity="0.1"/><path d="M718.868,378.275s-10.833-17.063-20.892-6.851a3.43,3.43,0,0,0-1.9,3.579s.875-.583,1.776,1.273a9.082,9.082,0,0,0,1.2,1.835,4.528,4.528,0,0,0,2.466,1.527h0s5.223,3.224,14.025-.424c0,0,2.593.138,2.975-.217l-3.181-1.909a6.1,6.1,0,0,1-3.5,2.837s3.51-2.651,3.038-3.139c-.09-.1-1.723-.933-1.723-.933s-2.3,4.125-5.7,4.724c0,0,4.608-2.625,5.085-5.053L710,374.4s-2.211,4.481-6.061,5.3c0,0,4.719-2.911,5.488-5.52l-2.651-.764s-2.238,4.332-5.446,4.995c0,0,5.112-3.913,4.831-5.133a13.171,13.171,0,0,0-3.181-.387s-1.681,3.07-3.579,3.293c0,0,3.139-2.98,2.879-3.372,0,0-3.409.133-5.106,1.114a10.318,10.318,0,0,1,5.058-1.644,5.69,5.69,0,0,0-2.911-1.469s1.8-.939,3.712,1.448a13.1,13.1,0,0,1,3.017.265,12.206,12.206,0,0,0-3.335-3.643s2.492.212,4.04,3.823l2.678.711s-1.914-3.579-3.4-4.6c0,0,2.508.6,4.062,4.841l2.5,1.061a21.133,21.133,0,0,0-2.826-4.709s2.206,1.06,3.526,5.043l1.591.917s-1.06-2.328-1.437-2.969-.228-.79-.228-.79a8.7,8.7,0,0,1,2.338,4.131S718.725,378.455,718.868,378.275Z" transform="translate(-377.461 -202.126)" fill="#9c3c94" opacity="0.1"/><path d="M853.246,213.475s-10.3-17.387-20.68-7.492a3.448,3.448,0,0,0-2,3.521s.885-.562,1.734,1.32a9.167,9.167,0,0,0,1.14,1.877,4.5,4.5,0,0,0,2.418,1.591h0s5.117,3.383,14.03,0c0,0,2.588.217,2.98-.127l-3.112-2a6.1,6.1,0,0,1-3.585,2.725s3.59-2.561,3.139-3.044c-.1-.1-1.7-.992-1.7-.992s-2.423,4.056-5.833,4.549c0,0,4.687-2.482,5.234-4.889l-2.5-1.177s-2.349,4.417-6.225,5.122c0,0,4.809-2.763,5.658-5.345l-2.619-.848s-2.375,4.242-5.6,4.825c0,0,5.228-3.754,4.984-4.979a13.1,13.1,0,0,0-3.181-.488s-1.776,3.017-3.68,3.181c0,0,3.229-2.874,2.985-3.277,0,0-3.415.027-5.138.954A10.351,10.351,0,0,1,836.8,207a5.7,5.7,0,0,0-2.869-1.559s1.829-.885,3.712,1.559a13.43,13.43,0,0,1,3.006.361,12.684,12.684,0,0,0-3.219-3.744s2.482.286,3.919,3.945l2.651.8s-1.8-3.637-3.261-4.709c0,0,2.492.684,3.913,4.963l2.466,1.151a21.3,21.3,0,0,0-2.651-4.772s2.169,1.129,3.372,5.149l1.554.965s-1-2.36-1.347-3.012-.2-.8-.2-.8a8.712,8.712,0,0,1,2.211,4.2S853.092,213.65,853.246,213.475Z" transform="translate(-440.643 -124.509)" fill="#9c3c94"/><path d="M735.309,276.141s.53-20.2-13.505-17.355a3.455,3.455,0,0,0-3.574,1.914s1.06,0,.764,2.041a9.3,9.3,0,0,0-.032,2.2,4.533,4.533,0,0,0,1.193,2.651h0s2.529,5.589,11.867,7.487c0,0,2.073,1.564,2.593,1.479l-1.591-3.351a6.12,6.12,0,0,1-4.486.4s4.4-.26,4.279-.907c0-.133-.912-1.745-.912-1.745s-4.21,2.147-7.365.737c0,0,5.3.4,7.036-1.347l-1.479-2.349s-4.337,2.482-8,1.018c0,0,5.541.223,7.641-1.511l-1.766-2.121s-4.279,2.344-7.312,1.1c0,0,6.427-.387,6.893-1.559a13.753,13.753,0,0,0-2.439-2.121s-3.107,1.591-4.8.732c0,0,4.242-.711,4.268-1.182,0,0-2.9-1.8-4.857-1.93a10.324,10.324,0,0,1,5.117,1.463,5.7,5.7,0,0,0-1.591-2.847s2.02.228,2.3,3.288a13.181,13.181,0,0,1,2.354,1.909,12.4,12.4,0,0,0-.732-4.884s1.951,1.564,1.22,5.424l1.819,2.089s.414-4.04-.249-5.721c0,0,1.739,1.9.668,6.283l1.469,2.285a21.145,21.145,0,0,0,.292-5.483s1.23,2.121.106,6.156l.806,1.644s.408-2.529.461-3.266.254-.785.254-.785a8.707,8.707,0,0,1-.366,4.735S735.076,276.21,735.309,276.141Z" transform="translate(-387.89 -150.615)" fill="#9c3c94"/><ellipse cx="14.279" cy="2.413" rx="14.279" ry="2.413" transform="translate(356.343 377.403)" fill="#9c3c94" opacity="0.1"/><ellipse cx="14.279" cy="2.413" rx="14.279" ry="2.413" transform="translate(304.289 414.032)" fill="#9c3c94" opacity="0.1"/><ellipse cx="14.279" cy="2.413" rx="14.279" ry="2.413" transform="translate(35.106 395.267)" fill="#9c3c94" opacity="0.1"/><ellipse cx="14.279" cy="2.413" rx="14.279" ry="2.413" transform="translate(412.597 411.62)" fill="#9c3c94" opacity="0.1"/><ellipse cx="21.321" cy="3.606" rx="21.321" ry="3.606" transform="translate(420.424 379.816)" fill="#9c3c94"/><path d="M927.527,758.3a6.158,6.158,0,0,0,2.031-3.065,2.724,2.724,0,0,0-1.416-3.123c-1.3-.5-2.7.4-3.759,1.315s-2.264,1.957-3.648,1.766a5.567,5.567,0,0,0,1.718-5.2,2.178,2.178,0,0,0-.477-1.061c-.726-.774-2.036-.44-2.906.17-2.757,1.941-3.526,5.684-3.542,9.057a17.018,17.018,0,0,1-.048-3.712,3.808,3.808,0,0,0-1.405-3.3,4.194,4.194,0,0,0-2.121-.53,4.43,4.43,0,0,0-3.468.986c-1.06,1.124-.779,3.017.133,4.242a13.714,13.714,0,0,0,3.59,2.874,8.021,8.021,0,0,1,2.567,2.444,2.507,2.507,0,0,1,.186.435h7.773a21.444,21.444,0,0,0,4.793-3.3Z" transform="translate(-476.944 -380.78)" fill="#9c3c94"/><path d="M170.29,779.972s8.139-.249,10.6-2,12.53-3.834,13.139-1.029,12.238,13.94,3.044,14.014-21.364-1.432-23.813-2.927S170.29,779.972,170.29,779.972Z" transform="translate(-130.492 -393.507)" fill="#a8a8a8"/><path d="M197.232,793.872c-9.194.074-21.364-1.432-23.813-2.927-1.866-1.135-2.609-5.212-2.858-7.095h-.27s.53,6.57,2.964,8.06,14.619,3,23.813,2.927c2.651,0,3.569-.965,3.521-2.365C200.217,793.325,199.2,793.856,197.232,793.872Z" transform="translate(-130.492 -397.396)" opacity="0.2"/></g></svg>